<svg xmlns="http://www.w3.org/2000/svg" viewBox="0 0 15 15"><defs><style>.cls-1{fill:none;}.cls-2{fill:#fff;}</style></defs><title>Prancheta 1_1</title><g id="Camada_2" data-name="Camada 2"><g id="Mine"><rect class="cls-1" width="15" height="15"/><polygon points="7 1 7 3 5 3 5 4 3 4 3 3 4 3 4 5 3 5 3 7 1 7 1 8 3 8 3 10 4 10 4 12 3 12 3 11 5 11 5 12 7 12 7 14 8 14 8 12 10 12 10 11 12 11 12 12 11 12 11 10 12 10 12 8 14 8 14 7 12 7 12 5 11 5 11 3 12 3 12 4 10 4 10 3 8 3 8 1 7 1"/><rect class="cls-2" x="5" y="5" width="2" height="2"/></g></g></svg>